<svg width="24" height="24" viewBox="0 0 24 24" fill="none" xmlns="http://www.w3.org/2000/svg">
<g clip-path="url(#clip0_86_11612)">
<path d="M0 11.9999C0 14.0788 0.528891 16.0342 1.45908 17.739L12 18.7825L22.5409 17.739C23.4711 16.0342 24 14.0788 24 11.9999C24 9.921 23.4711 7.96566 22.5409 6.26077L12 5.21729L1.45908 6.26077C0.528891 7.96566 0 9.921 0 11.9999H0Z" fill="#D80027"/>
<path d="M1.45898 6.26086H22.5408C20.5056 2.53073 16.5484 0 11.9999 0C7.45139 0 3.49425 2.53073 1.45898 6.26086Z" fill="#0052B4"/>
<path d="M11.9999 24.0001C16.5484 24.0001 20.5056 21.4694 22.5408 17.7393H1.45898C3.49425 21.4694 7.45139 24.0001 11.9999 24.0001Z" fill="#0052B4"/>
<path d="M16.1735 14.3481V12.7829H15.1301V10.6959L14.0866 9.6524L13.0431 10.6959V8.60891L11.9996 7.56543L10.9561 8.60891V10.6959L9.91263 9.6524L8.86915 10.6959V12.7829H7.82571V14.3481H6.78223V15.9133H17.217V14.3481H16.1735Z" fill="#F0F0F0"/>
</g>
<defs>
<clipPath id="clip0_86_11612">
<rect width="24" height="24" fill="white"/>
</clipPath>
</defs>
</svg>
