<svg width="24" height="24" viewBox="0 0 24 24" fill="none" xmlns="http://www.w3.org/2000/svg">
<g clip-path="url(#clip0_86_11623)">
<path d="M12 24C18.6274 24 24 18.6274 24 12C24 5.37258 18.6274 0 12 0C5.37258 0 0 5.37258 0 12C0 18.6274 5.37258 24 12 24Z" fill="#F0F0F0"/>
<path d="M24.0004 12.0002C24.0004 7.24267 21.2317 3.13192 17.2178 1.19092V22.8094C21.2317 20.8685 24.0004 16.7577 24.0004 12.0002Z" fill="#D80027"/>
<path d="M0 12.0002C0 16.7577 2.76867 20.8685 6.78263 22.8095V1.19092C2.76867 3.13192 0 7.24267 0 12.0002Z" fill="#D80027"/>
<path d="M14.087 13.5655L16.174 12.522L15.1305 12.0003V10.9568L13.0435 12.0003L14.087 9.91335H13.0435L12.0001 8.34814L10.9566 9.91335H9.91309L10.9566 12.0003L8.86961 10.9568V12.0003L7.82617 12.522L9.91309 13.5655L9.39138 14.609H11.4783V16.1742H12.5218V14.609H14.6088L14.087 13.5655Z" fill="#D80027"/>
</g>
<defs>
<clipPath id="clip0_86_11623">
<rect width="24" height="24" fill="white"/>
</clipPath>
</defs>
</svg>
