<svg width="24" height="24" viewBox="0 0 24 24" fill="none" xmlns="http://www.w3.org/2000/svg">
<g clip-path="url(#clip0_86_11893)">
<path d="M0 12C0 5.37262 5.37262 0 12 0C18.6274 0 24 5.37262 24 12L12 13.0435L0 12Z" fill="#FFDA44"/>
<path d="M1.60547 17.9999C3.68039 21.5866 7.55808 23.9999 11.9997 23.9999C16.4414 23.9999 20.319 21.5866 22.394 17.9999L11.9997 17.2173L1.60547 17.9999Z" fill="#D80027"/>
<path d="M22.3942 18C23.4153 16.235 24 14.1858 24 12H0C0 14.1858 0.584719 16.235 1.60575 18H22.3942Z" fill="#0052B4"/>
<path d="M12.0001 16.174C14.3052 16.174 16.174 14.3052 16.174 12.0001C16.174 9.69489 14.3052 7.82617 12.0001 7.82617C9.69489 7.82617 7.82617 9.69489 7.82617 12.0001C7.82617 14.3052 9.69489 16.174 12.0001 16.174Z" fill="#FFDA44"/>
<path d="M12.0003 14.6088C10.5618 14.6088 9.3916 13.4385 9.3916 12.0001V10.4349C9.3916 8.99641 10.5619 7.82617 12.0003 7.82617C13.4387 7.82617 14.609 8.99645 14.609 10.4349V12.0001C14.609 13.4385 13.4387 14.6088 12.0003 14.6088Z" fill="#338AF3"/>
<path d="M16.174 5.73928H13.0436C13.0436 5.163 12.5764 4.6958 12.0001 4.6958C11.4238 4.6958 10.9566 5.163 10.9566 5.73928H7.82617C7.82617 6.31561 8.32816 6.78277 8.90439 6.78277H8.86966C8.86966 7.3591 9.33681 7.82625 9.91314 7.82625C9.91314 8.40258 10.3803 8.86974 10.9566 8.86974H13.0436C13.6199 8.86974 14.0871 8.40258 14.0871 7.82625C14.6634 7.82625 15.1306 7.3591 15.1306 6.78277H15.0958C15.6721 6.78277 16.174 6.31557 16.174 5.73928Z" fill="black"/>
</g>
<defs>
<clipPath id="clip0_86_11893">
<rect width="24" height="24" fill="white"/>
</clipPath>
</defs>
</svg>
