<svg width="24" height="24" viewBox="0 0 24 24" fill="none" xmlns="http://www.w3.org/2000/svg">
<g clip-path="url(#clip0_86_12123)">
<path d="M12 24C18.6274 24 24 18.6274 24 12C24 5.37258 18.6274 0 12 0C5.37258 0 0 5.37258 0 12C0 18.6274 5.37258 24 12 24Z" fill="#F0F0F0"/>
<path d="M11.9997 24C15.0427 24 17.8206 22.8668 19.9359 21H4.06348C6.1788 22.8668 8.95671 24 11.9997 24Z" fill="#D80027"/>
<path d="M0.37793 14.9999C0.651914 16.0643 1.06845 17.0714 1.60563 17.9999H22.3941C22.9313 17.0714 23.3478 16.0643 23.6218 14.9999L11.9999 14.0869L0.37793 14.9999Z" fill="#0052B4"/>
<path d="M23.6222 9C23.3482 7.93566 22.9317 6.92859 22.3945 6L12.0002 5.73914C12.0002 3.64322 12.0002 1.66242 12.0002 0C11.1088 0 10.24 0.0972656 9.40401 0.281625C9.38798 0.285187 1.56543 6.45553 1.56543 12C1.76545 12.0348 12.0002 13.0435 12.0002 13.0435C12.0002 13.0435 12.0002 10.7578 12.0002 9H23.6222Z" fill="#0052B4"/>
<path d="M12 7.48677V1.48677H8.19961L9.40416 0.282227C4.45927 1.37282 0.659813 5.51301 0.0782812 10.6303C0.0271875 11.0798 0 11.5366 0 11.9998H6.07828V9.6081L8.49366 11.9998H12.7867L8.19956 7.48677H12Z" fill="#F0F0F0"/>
<path d="M12.0055 11.9999L7.49245 7.48687H6.07828V7.48692L10.5913 11.9999H4.5652V5.9999H22.3942C21.7409 4.87054 20.9085 3.85786 19.9363 2.9999H4.5652V2.58154C3.35452 3.53859 2.33302 4.72396 1.5652 6.07275V11.9999H0C0 13.0358 0.13125 14.0411 0.378047 14.9999H23.622C23.8687 14.041 24 13.0358 24 11.9999H12.0055Z" fill="#D80027"/>
</g>
<defs>
<clipPath id="clip0_86_12123">
<rect width="24" height="24" fill="white"/>
</clipPath>
</defs>
</svg>
