<svg width="24" height="24" viewBox="0 0 24 24" fill="none" xmlns="http://www.w3.org/2000/svg">
<g clip-path="url(#clip0_86_12225)">
<path d="M12 24C18.6274 24 24 18.6274 24 12C24 5.37258 18.6274 0 12 0C5.37258 0 0 5.37258 0 12C0 18.6274 5.37258 24 12 24Z" fill="#338AF3"/>
<path d="M18.783 12.1304H5.21777C5.21777 13.0669 6.03345 13.826 6.96987 13.826H6.91343C6.91343 14.7625 7.67257 15.5217 8.60909 15.5217C8.60909 16.4582 9.36823 17.2173 10.3047 17.2173H13.6961C14.6326 17.2173 15.3917 16.4582 15.3917 15.5217C16.3282 15.5217 17.0874 14.7625 17.0874 13.826H17.0309C17.9673 13.826 18.783 13.0669 18.783 12.1304Z" fill="#FFDA44"/>
<path d="M16.696 9.91309C16.696 12.5064 14.5937 14.6087 12.0003 14.6087C9.40698 14.6087 7.30469 12.5064 7.30469 9.91309" fill="#338AF3"/>
<path d="M15.5864 9.91287L14.1208 10.6023L14.9012 12.0216L13.3098 11.7172L13.1082 13.3248L11.9997 12.1424L10.8912 13.3248L10.6896 11.7172L9.09821 12.0215L9.87859 10.6022L8.41309 9.91287L9.87863 9.22352L9.09821 7.8042L10.6896 8.1086L10.8913 6.50098L11.9997 7.6834L13.1082 6.50098L13.3098 8.1086L14.9013 7.8042L14.1209 9.22357L15.5864 9.91287Z" fill="#FFDA44"/>
</g>
<defs>
<clipPath id="clip0_86_12225">
<rect width="24" height="24" fill="white"/>
</clipPath>
</defs>
</svg>
