<svg width="24" height="24" viewBox="0 0 24 24" fill="none" xmlns="http://www.w3.org/2000/svg">
<g clip-path="url(#clip0_86_12392)">
<path d="M12 24C18.6274 24 24 18.6274 24 12C24 5.37258 18.6274 0 12 0C5.37258 0 0 5.37258 0 12C0 18.6274 5.37258 24 12 24Z" fill="#F0F0F0"/>
<path d="M23.8974 10.435C23.5664 7.90439 22.4296 5.45911 20.4855 3.51496C18.5414 1.57082 16.096 0.434059 13.5654 0.103027L13.5655 10.435H23.8974Z" fill="#0052B4"/>
<path d="M10.4345 0.103027C7.9039 0.434059 5.45857 1.57078 3.51443 3.51492C1.57034 5.45911 0.43357 7.90443 0.102539 10.4351L10.4345 10.435L10.4345 0.103027Z" fill="#0052B4"/>
<path d="M0.102539 13.5654C0.43357 16.096 1.57034 18.5414 3.51443 20.4855C5.45857 22.4296 7.90385 23.5663 10.4345 23.8975L10.4345 13.5655L0.102539 13.5654Z" fill="#0052B4"/>
<path d="M13.5654 23.8973C16.096 23.5663 18.5413 22.4296 20.4854 20.4854C22.4296 18.5413 23.5663 16.096 23.8973 13.5654H13.5654V23.8973Z" fill="#0052B4"/>
<path d="M16.097 7.61422C16.097 7.45466 16.2267 7.32496 16.3864 7.32496H17.0062C17.9861 7.32496 18.7833 6.5278 18.7833 5.54797C18.7833 4.56814 17.9862 3.77094 17.0062 3.77094H16.4176C16.2254 3.62661 15.9677 3.5376 15.6833 3.5376C15.0902 3.5376 14.6094 3.92221 14.6094 4.39668C14.6094 4.86655 15.081 5.24774 15.6662 5.25514L15.6659 5.25857H17.0062C17.1658 5.25857 17.2955 5.38832 17.2955 5.54788C17.2955 5.70744 17.1658 5.83714 17.0062 5.83714H16.3864C15.4065 5.83714 14.6094 6.6343 14.6094 7.61413C14.6094 8.59396 15.4064 9.39116 16.3864 9.39116H18.7833V7.90344H16.3864C16.2267 7.90349 16.097 7.77379 16.097 7.61422Z" fill="#F0F0F0"/>
<path d="M6.7054 7.61422C6.7054 7.45466 6.8351 7.32496 6.99471 7.32496H7.61459C8.59446 7.32496 9.39166 6.5278 9.39166 5.54797C9.39166 4.56814 8.59451 3.77094 7.61459 3.77094H7.02593C6.83379 3.62661 6.57602 3.5376 6.29168 3.5376C5.69857 3.5376 5.21777 3.92221 5.21777 4.39668C5.21777 4.86655 5.68938 5.24774 6.27457 5.25514L6.27429 5.25857H7.61463C7.77424 5.25857 7.90394 5.38832 7.90394 5.54788C7.90394 5.70744 7.77424 5.83714 7.61463 5.83714H6.99476C6.01488 5.83714 5.21777 6.6343 5.21777 7.61413C5.21777 8.59396 6.01484 9.39116 6.99476 9.39116H9.39162V7.90344H6.99471C6.8351 7.90349 6.7054 7.77379 6.7054 7.61422Z" fill="#F0F0F0"/>
<path d="M16.0971 18.685C16.0971 18.5255 16.2268 18.3958 16.3864 18.3958H17.0063C17.9862 18.3958 18.7834 17.5986 18.7834 16.6188C18.7834 15.6389 17.9862 14.8417 17.0063 14.8417H16.4176C16.2255 14.6974 15.9677 14.6084 15.6834 14.6084C15.0902 14.6084 14.6094 14.9931 14.6094 15.4675C14.6094 15.9374 15.081 16.3185 15.6662 16.3259L15.6659 16.3294H17.0062C17.1658 16.3294 17.2955 16.4591 17.2955 16.6187C17.2955 16.7782 17.1658 16.9079 17.0062 16.9079H16.3864C15.4065 16.9079 14.6094 17.7051 14.6094 18.6849C14.6094 19.6648 15.4064 20.462 16.3864 20.462H18.7833V18.9743H16.3864C16.2268 18.9743 16.0971 18.8445 16.0971 18.685Z" fill="#F0F0F0"/>
<path d="M6.70545 18.685C6.70545 18.5255 6.83515 18.3958 6.99476 18.3958H7.61463C8.59451 18.3958 9.39171 17.5986 9.39171 16.6188C9.39171 15.6389 8.59455 14.8417 7.61463 14.8417H7.02598C6.83384 14.6974 6.57607 14.6084 6.29173 14.6084C5.69857 14.6084 5.21777 14.9931 5.21777 15.4675C5.21777 15.9374 5.68938 16.3185 6.27457 16.3259L6.27429 16.3294H7.61463C7.77424 16.3294 7.90395 16.4591 7.90395 16.6187C7.90395 16.7782 7.77424 16.9079 7.61463 16.9079H6.99476C6.01488 16.9079 5.21777 17.7051 5.21777 18.6849C5.21777 19.6648 6.01484 20.462 6.99476 20.462H9.39166V18.9743H6.99476C6.83515 18.9743 6.70545 18.8445 6.70545 18.685Z" fill="#F0F0F0"/>
</g>
<defs>
<clipPath id="clip0_86_12392">
<rect width="24" height="24" fill="white"/>
</clipPath>
</defs>
</svg>
