<svg width="24" height="24" viewBox="0 0 24 24" fill="none" xmlns="http://www.w3.org/2000/svg">
<g clip-path="url(#clip0_86_12440)">
<path d="M12 24C18.6274 24 24 18.6274 24 12C24 5.37258 18.6274 0 12 0C5.37258 0 0 5.37258 0 12C0 18.6274 5.37258 24 12 24Z" fill="#338AF3"/>
<path d="M12 5.21729L12.518 6.8116H14.1944L12.8382 7.79696L13.3562 9.39122L12 8.40591L10.6438 9.39122L11.1619 7.79696L9.80566 6.8116H11.4821L12 5.21729Z" fill="#F0F0F0"/>
<path d="M5.21777 12.0002L6.81209 11.4821V9.80566L7.79745 11.1619L9.39171 10.6439L8.4064 12.0002L9.39171 13.3563L7.79745 12.8382L6.81209 14.1944V12.5181L5.21777 12.0002Z" fill="#F0F0F0"/>
<path d="M12.0001 18.7823L11.4821 17.188H9.80566L11.1619 16.2027L10.6439 14.6084L12.0001 15.5937L13.3563 14.6084L12.8382 16.2027L14.1944 17.188H12.5181L12.0001 18.7823Z" fill="#F0F0F0"/>
<path d="M18.7833 12L17.189 12.518V14.1944L16.2036 12.8382L14.6094 13.3562L15.5947 12L14.6094 10.6439L16.2036 11.1619L17.189 9.80566V11.4821L18.7833 12Z" fill="#F0F0F0"/>
</g>
<defs>
<clipPath id="clip0_86_12440">
<rect width="24" height="24" fill="white"/>
</clipPath>
</defs>
</svg>
