<svg width="1354" height="268" viewBox="0 0 1354 268" fill="none" xmlns="http://www.w3.org/2000/svg">
<path d="M329.59 267.931C313.282 267.931 298.255 263.737 284.509 255.35C270.763 246.73 259.813 235.197 251.659 220.752C243.737 206.308 239.777 190.465 239.777 173.225C239.777 155.984 243.737 140.141 251.659 125.697C259.813 111.019 270.763 99.37 284.509 90.7497C298.255 82.1295 313.282 77.8193 329.59 77.8193C344.501 77.8193 356.5 80.6151 365.586 86.2066C374.905 91.7981 382.127 99.8359 387.253 110.32V81.6635H434.082V263.388H388.301V233.683C382.943 244.633 375.604 253.137 366.285 259.194C357.199 265.019 344.967 267.931 329.59 267.931ZM286.955 172.875C286.955 182.194 289.052 190.931 293.246 199.085C297.672 207.007 303.613 213.414 311.069 218.306C318.757 222.966 327.494 225.296 337.279 225.296C347.297 225.296 356.15 222.966 363.838 218.306C371.76 213.647 377.817 207.356 382.011 199.435C386.205 191.513 388.301 182.777 388.301 173.225C388.301 163.672 386.205 154.936 382.011 147.014C377.817 138.86 371.76 132.453 363.838 127.793C356.15 122.901 347.297 120.455 337.279 120.455C327.494 120.455 318.757 122.901 311.069 127.793C303.38 132.453 297.439 138.744 293.246 146.665C289.052 154.586 286.955 163.323 286.955 172.875ZM529.561 267.581C516.514 267.581 504.748 264.553 494.264 258.495C483.78 252.205 475.509 243.468 469.452 232.285C463.394 220.869 460.366 207.706 460.366 192.795V81.6635H507.544V181.262C507.544 211.317 519.659 226.344 543.889 226.344C554.606 226.344 563.576 222.616 570.798 215.161C578.021 207.473 581.632 196.173 581.632 181.262V81.6635H628.81V263.388H583.03V236.129C578.603 246.846 572.08 254.767 563.459 259.893C554.839 265.019 543.54 267.581 529.561 267.581ZM656.642 8.2749H703.82V263.388H656.642V8.2749ZM800.569 263.388C782.164 263.388 768.301 258.845 758.982 249.758C749.663 240.672 745.003 226.46 745.003 207.123V121.853H719.492V81.6635H745.003V44.9692L792.182 40.0766V81.6635H830.623V121.853H792.182V204.677C792.182 215.86 797.074 221.451 806.859 221.451H826.43V263.388H800.569ZM928.633 267.931C910.228 267.931 893.919 263.737 879.707 255.35C865.496 246.73 854.429 235.197 846.508 220.752C838.586 206.308 834.626 190.349 834.626 172.875C834.626 155.635 838.703 139.675 846.857 124.998C855.012 110.32 866.195 98.671 880.406 90.0508C894.851 81.4305 910.927 77.1204 928.633 77.1204C946.34 77.1204 962.182 81.4305 976.161 90.0508C990.373 98.671 1001.32 110.32 1009.01 124.998C1016.93 139.442 1020.89 155.402 1020.89 172.875C1020.89 178.7 1020.43 184.291 1019.5 189.65H883.552C886.347 200.6 891.589 209.453 899.278 216.209C907.199 222.733 916.984 225.994 928.633 225.994C938.418 225.994 947.155 223.781 954.843 219.355C962.532 214.695 968.589 208.754 973.016 201.532L1009.71 229.14C1002.25 240.789 991.305 250.224 976.86 257.447C962.415 264.436 946.34 267.931 928.633 267.931ZM973.365 154.353C970.569 143.869 965.094 135.132 956.94 128.143C948.786 121.154 939.117 117.659 927.934 117.659C916.984 117.659 907.432 121.037 899.278 127.793C891.356 134.55 886.114 143.403 883.552 154.353H973.365ZM1041.6 81.6635H1087.39V116.261C1090.65 102.981 1096.94 92.963 1106.26 86.2066C1115.81 79.4502 1128.27 76.538 1143.65 77.4699V121.853H1137.01C1123.03 121.853 1111.5 126.279 1102.41 135.132C1093.33 143.753 1088.78 155.518 1088.78 170.429V263.388H1041.6V81.6635ZM1233.3 267.931C1216.99 267.931 1201.96 263.737 1188.22 255.35C1174.47 246.73 1163.52 235.197 1155.37 220.752C1147.44 206.308 1143.48 190.465 1143.48 173.225C1143.48 155.984 1147.44 140.141 1155.37 125.697C1163.52 111.019 1174.47 99.37 1188.22 90.7497C1201.96 82.1295 1216.99 77.8193 1233.3 77.8193C1248.21 77.8193 1260.21 80.6151 1269.29 86.2066C1278.61 91.7981 1285.83 99.8359 1290.96 110.32V81.6635H1337.79V263.388H1292.01V233.683C1286.65 244.633 1279.31 253.137 1269.99 259.194C1260.91 265.019 1248.67 267.931 1233.3 267.931ZM1190.66 172.875C1190.66 182.194 1192.76 190.931 1196.95 199.085C1201.38 207.007 1207.32 213.414 1214.78 218.306C1222.46 222.966 1231.2 225.296 1240.99 225.296C1251 225.296 1259.86 222.966 1267.54 218.306C1275.47 213.647 1281.52 207.356 1285.72 199.435C1289.91 191.513 1292.01 182.777 1292.01 173.225C1292.01 163.672 1289.91 154.936 1285.72 147.014C1281.52 138.86 1275.47 132.453 1267.54 127.793C1259.86 122.901 1251 120.455 1240.99 120.455C1231.2 120.455 1222.46 122.901 1214.78 127.793C1207.09 132.453 1201.15 138.744 1196.95 146.665C1192.76 154.586 1190.66 163.323 1190.66 172.875Z" fill="black"/>
<path d="M215.128 213.122H52.283V263H215.128V213.122Z" fill="#C3F84D"/>
<path d="M0 0H63.8175L130.419 178.536H71.501L0 0Z" fill="black"/>
<path d="M267.728 0H203.91L137.308 178.536H196.227L267.728 0Z" fill="black"/>
</svg>
