<svg width="24" height="24" viewBox="0 0 24 24" fill="none" xmlns="http://www.w3.org/2000/svg">
<g clip-path="url(#clip0_86_13285)">
<path d="M24 11.9999C24 11.4695 23.9651 10.9471 23.8984 10.4347H10.4347C7.98306 7.98328 3.51452 3.51502 3.5147 3.51465C-1.17157 8.20092 -1.17157 15.7989 3.5147 20.4852L10.4348 13.5652H23.8984C23.9651 13.0528 24 12.5304 24 11.9999Z" fill="black"/>
<path d="M23.9968 12.2725C23.9963 12.2956 23.9958 12.3189 23.9951 12.342C23.9957 12.3188 23.9962 12.2956 23.9968 12.2725Z" fill="#F0F0F0"/>
<path d="M23.9853 12.6006C23.9843 12.6235 23.9827 12.6463 23.9814 12.6692C23.9827 12.6464 23.9842 12.6235 23.9853 12.6006Z" fill="#F0F0F0"/>
<path d="M23.9684 12.8623C23.966 12.896 23.9637 12.9297 23.9609 12.9633C23.9637 12.9297 23.966 12.896 23.9684 12.8623Z" fill="#F0F0F0"/>
<path d="M23.9287 10.6919C23.9331 10.732 23.9375 10.7721 23.9415 10.8123C23.9375 10.7721 23.9331 10.732 23.9287 10.6919Z" fill="#F0F0F0"/>
<path d="M23.9814 11.3301C23.9827 11.353 23.9843 11.3758 23.9853 11.3987C23.9842 11.3758 23.9827 11.3529 23.9814 11.3301Z" fill="#F0F0F0"/>
<path d="M23.9951 11.6572C23.9958 11.6804 23.9962 11.7036 23.9968 11.7268C23.9963 11.7035 23.9957 11.6804 23.9951 11.6572Z" fill="#F0F0F0"/>
<path d="M23.9609 11.0361C23.9637 11.0697 23.966 11.1034 23.9684 11.1371C23.966 11.1034 23.9637 11.0697 23.9609 11.0361Z" fill="#F0F0F0"/>
<path d="M23.8984 10.4347C23.9038 10.4758 23.9086 10.5172 23.9135 10.5584C23.2013 4.6108 18.1395 0 12 0C8.68626 0 5.68622 1.3432 3.51465 3.51487L10.4345 10.4348H23.8984V10.4347Z" fill="#D80027"/>
<path d="M23.8984 13.5651H10.4345L3.51465 20.485C5.68622 22.6566 8.68626 23.9998 12 23.9998C18.1395 23.9998 23.2014 19.389 23.9135 13.4414C23.9086 13.4826 23.9037 13.524 23.8984 13.5651Z" fill="#6DA544"/>
<path d="M23.9415 13.1875C23.9375 13.2277 23.9331 13.2678 23.9287 13.3079C23.9331 13.2678 23.9376 13.2278 23.9415 13.1875Z" fill="#F0F0F0"/>
<path d="M23.9688 11.1377C23.9733 11.2019 23.9774 11.2662 23.9809 11.3306C23.9774 11.2662 23.9733 11.2019 23.9688 11.1377Z" fill="black"/>
<path d="M23.9131 10.5586C23.9185 10.6031 23.9236 10.6477 23.9284 10.6923C23.9235 10.6477 23.9184 10.6031 23.9131 10.5586Z" fill="black"/>
<path d="M23.9414 10.8125C23.9487 10.887 23.9553 10.9617 23.9613 11.0366C23.9554 10.9617 23.9488 10.8869 23.9414 10.8125Z" fill="black"/>
<path d="M23.9995 12C23.9995 12.0913 23.9981 12.1822 23.9961 12.2729C23.9981 12.1821 23.9995 12.0912 23.9995 12Z" fill="black"/>
<path d="M23.9809 12.6694C23.9774 12.7339 23.9732 12.7982 23.9688 12.8624C23.9732 12.7982 23.9773 12.7339 23.9809 12.6694Z" fill="black"/>
<path d="M23.9613 12.9634C23.9553 13.0382 23.9487 13.113 23.9414 13.1874C23.9488 13.113 23.9554 13.0382 23.9613 12.9634Z" fill="black"/>
<path d="M23.9284 13.3081C23.9236 13.3527 23.9185 13.3973 23.9131 13.4418C23.9184 13.3973 23.9235 13.3527 23.9284 13.3081Z" fill="black"/>
<path d="M23.9961 11.7271C23.9981 11.8178 23.9995 11.9087 23.9995 11.9999C23.9995 11.9087 23.9981 11.8178 23.9961 11.7271Z" fill="black"/>
<path d="M23.9854 11.3989C23.9896 11.4848 23.9928 11.571 23.9952 11.6573C23.9928 11.571 23.9896 11.4848 23.9854 11.3989Z" fill="black"/>
<path d="M23.9952 12.3423C23.9928 12.4286 23.9896 12.5148 23.9854 12.6007C23.9897 12.5148 23.9928 12.4286 23.9952 12.3423Z" fill="black"/>
<path d="M23.9883 11.4741H9.99352L2.80493 4.28662C2.57257 4.53168 2.32071 4.87387 2.16495 5.11757L9.03957 11.9958L2.15918 18.8763C2.2954 19.1187 2.59216 19.4774 2.80052 19.7108L9.99366 12.5176H23.99C23.9974 12.3446 23.9997 12.1707 23.9997 11.9959C23.9997 11.7616 23.9932 11.5889 23.9883 11.4741Z" fill="#FFDA44"/>
<path d="M2.91515 14.5584V13.5533C3.91818 13.5533 4.73413 12.7372 4.73413 11.7343C4.73413 11.0246 4.15677 10.4473 3.44718 10.4473C2.96376 10.4473 2.57043 10.8406 2.57043 11.3241C2.57043 11.6333 2.82191 11.8848 3.1311 11.8848C3.30585 11.8848 3.44802 11.7425 3.44802 11.5678H4.45311C4.45311 12.2968 3.86005 12.8899 3.13115 12.8899C2.26776 12.8899 1.56543 12.1875 1.56543 11.3242C1.56543 10.2866 2.40965 9.44238 3.44722 9.44238C4.71106 9.44238 5.73931 10.4706 5.73931 11.7344C5.73927 13.2915 4.47238 14.5584 2.91515 14.5584Z" fill="#FFDA44"/>
</g>
<defs>
<clipPath id="clip0_86_13285">
<rect width="24" height="24" fill="white"/>
</clipPath>
</defs>
</svg>
