<svg width="24" height="24" viewBox="0 0 24 24" fill="none" xmlns="http://www.w3.org/2000/svg">
<g clip-path="url(#clip0_86_12324)">
<path d="M24 11.9998C24 18.6271 18.6274 23.9998 12 23.9998C5.37262 23.9998 0 18.6271 0 11.9998C0.521719 11.9998 12 10.4346 12 10.4346L24 11.9998Z" fill="#D80027"/>
<path d="M0 12C0 5.37262 5.37262 0 12 0C18.6274 0 24 5.37262 24 12" fill="#0052B4"/>
<path d="M8.86926 8.34797C8.86926 7.48355 8.16848 6.78277 7.30405 6.78277C6.90304 6.78277 6.53755 6.93371 6.26057 7.18163V6.261H6.78229V5.21752H6.26057V4.6958H5.21709V5.21752H4.69537V6.261H5.21709V7.18163C4.9401 6.93371 4.57462 6.78277 4.1736 6.78277C3.30918 6.78277 2.6084 7.48355 2.6084 8.34797C2.6084 8.81143 2.81001 9.22768 3.13012 9.51432V10.4349H8.34749V9.51432C8.6677 9.22768 8.86926 8.81143 8.86926 8.34797Z" fill="#FFDA44"/>
</g>
<defs>
<clipPath id="clip0_86_12324">
<rect width="24" height="24" fill="white"/>
</clipPath>
</defs>
</svg>
