<svg width="24" height="24" viewBox="0 0 24 24" fill="none" xmlns="http://www.w3.org/2000/svg">
<g clip-path="url(#clip0_86_12695)">
<path d="M12 24C18.6274 24 24 18.6274 24 12C24 5.37258 18.6274 0 12 0C5.37258 0 0 5.37258 0 12C0 18.6274 5.37258 24 12 24Z" fill="#F0F0F0"/>
<path d="M12 0V12L3.51465 20.4853C5.68623 22.6568 8.68623 24 12 24C18.6273 24 24 18.6274 24 12C24 5.37262 12 0 12 0Z" fill="#D80027"/>
<path d="M12 0C8.68623 0 5.68623 1.34316 3.51465 3.51469C6.45887 6.45891 7.50404 7.50412 12 12H24C24 5.37262 18.6273 0 12 0Z" fill="#0052B4"/>
<path d="M8.21723 12.0003L6.75173 11.3109L7.53215 9.8916L5.94074 10.1961L5.73909 8.58838L4.63059 9.77075L3.52213 8.58838L3.32043 10.1961L1.72907 9.89155L2.50949 11.3109L1.04395 12.0003L2.50949 12.6896L1.72907 14.1089L3.32057 13.8045L3.52209 15.4122L4.63059 14.2298L5.73909 15.4122L5.94074 13.8045L7.53205 14.109L6.75168 12.6897L8.21723 12.0003Z" fill="#FFDA44"/>
<path d="M3.20082 4.6958L3.68851 5.3775L4.48749 5.12443L3.98977 5.79886L4.47746 6.48057L3.68218 6.21568L3.18451 6.89007L3.19074 6.05194L2.39551 5.787L3.19463 5.53393L3.20082 4.6958Z" fill="#FFDA44"/>
<path d="M3.20082 17.1104L3.68851 17.7921L4.48749 17.5389L3.98977 18.2134L4.47746 18.8951L3.68218 18.6302L3.18451 19.3046L3.19074 18.4665L2.39551 18.2016L3.19463 17.9485L3.20082 17.1104Z" fill="#FFDA44"/>
<path d="M10.1568 10.9028L9.66915 11.5845L8.87012 11.3314L9.36784 12.0058L8.88015 12.6876L9.67543 12.4227L10.1731 13.0971L10.1669 12.259L10.9621 11.994L10.163 11.741L10.1568 10.9028Z" fill="#FFDA44"/>
</g>
<defs>
<clipPath id="clip0_86_12695">
<rect width="24" height="24" fill="white"/>
</clipPath>
</defs>
</svg>
