<svg width="24" height="24" viewBox="0 0 24 24" fill="none" xmlns="http://www.w3.org/2000/svg">
<g clip-path="url(#clip0_86_12849)">
<path d="M12 24C18.6274 24 24 18.6274 24 12C24 5.37258 18.6274 0 12 0C5.37258 0 0 5.37258 0 12C0 18.6274 5.37258 24 12 24Z" fill="#F0F0F0"/>
<path d="M12 0C5.37262 0 0 5.37262 0 12C0 13.4678 0.264047 14.874 0.746391 16.1739H23.2537C23.736 14.874 24 13.4678 24 12C24 5.37262 18.6274 0 12 0Z" fill="#0052B4"/>
<path d="M11.9997 0C6.84013 0 2.44161 3.2565 0.746094 7.82611H23.2534C21.5578 3.2565 17.1593 0 11.9997 0Z" fill="#D80027"/>
<path d="M3.10254 6.78271V12.7689C3.10254 16.1741 7.55102 17.2175 7.55102 17.2175C7.55102 17.2175 11.9995 16.1741 11.9995 12.7689V6.78271H3.10254Z" fill="#D80027"/>
<path d="M4.94238 7.82625H10.1598V5.73928L9.11632 6.261L7.55112 4.6958L5.98587 6.261L4.94238 5.73928V7.82625Z" fill="#FFDA44"/>
<path d="M10.9565 13.6023L7.56514 10.2109L4.17383 13.6023L5.28059 14.709L7.56514 12.4245L9.84969 14.709L10.9565 13.6023Z" fill="#FFDA44"/>
<path d="M10.9565 10.4347H9.37414C9.46311 10.2812 9.51486 10.1033 9.51486 9.91311C9.51486 9.33674 9.04766 8.86963 8.47137 8.86963C8.07317 8.86963 7.72738 9.09266 7.55145 9.42055C7.37553 9.09271 7.02973 8.86963 6.63153 8.86963C6.05525 8.86963 5.58805 9.33674 5.58805 9.91311C5.58805 10.1033 5.6398 10.2812 5.72877 10.4347H4.17383C4.17383 11.0111 4.67581 11.4782 5.25205 11.4782H5.21731C5.21731 12.0546 5.68447 12.5217 6.2608 12.5217C6.2608 13.032 6.62727 13.4559 7.11125 13.5467L6.28906 15.403C6.68309 15.5632 7.11369 15.6522 7.56519 15.6522C8.01669 15.6522 8.44728 15.5632 8.84131 15.403L8.01913 13.5467C8.50311 13.456 8.86958 13.032 8.86958 12.5217C9.44591 12.5217 9.91306 12.0546 9.91306 11.4782H9.87833C10.4545 11.4782 10.9565 11.011 10.9565 10.4347Z" fill="#F0F0F0"/>
</g>
<defs>
<clipPath id="clip0_86_12849">
<rect width="24" height="24" fill="white"/>
</clipPath>
</defs>
</svg>
