<svg width="24" height="24" viewBox="0 0 24 24" fill="none" xmlns="http://www.w3.org/2000/svg">
<g clip-path="url(#clip0_86_13023)">
<path d="M22.8093 17.2173C23.5721 15.6397 24 13.8697 24 11.9999C24 10.13 23.5721 8.36009 22.8093 6.78251L12 6.26074L1.19072 6.78246C0.427875 8.36009 0 10.13 0 11.9999C0 13.8697 0.427875 15.6397 1.19072 17.2173L12 17.739L22.8093 17.2173Z" fill="#FFDA44"/>
<path d="M11.9997 0C7.24218 0 3.13143 2.76867 1.19043 6.78263H22.8089C20.868 2.76867 16.7572 0 11.9997 0Z" fill="black"/>
<path d="M11.9997 23.9999C7.24218 23.9999 3.13143 21.2312 1.19043 17.2173H22.8089C20.868 21.2312 16.7572 23.9999 11.9997 23.9999Z" fill="#0052B4"/>
<path d="M23.4333 8.34766H0.566672C0.199078 9.49933 0 10.7263 0 11.9998C0 13.2734 0.199078 14.5003 0.566672 15.652H23.4333C23.8009 14.5003 24 13.2734 24 11.9998C24 10.7263 23.8009 9.49933 23.4333 8.34766Z" fill="#A2001D"/>
<path d="M4.17383 11.478H19.826V12.5215H4.17383V11.478Z" fill="#FFDA44"/>
<path d="M6.26074 9.39111H17.739V10.4346H6.26074V9.39111Z" fill="#FFDA44"/>
<path d="M17.8133 12.0001C17.8133 12.0001 15.13 15.1305 11.9996 15.1305C8.86919 15.1305 8.86914 12.0001 8.86914 12.0001C8.86914 12.0001 8.86914 8.86963 11.9996 8.86963C15.13 8.86963 17.8133 12.0001 17.8133 12.0001Z" fill="#F0F0F0"/>
<path d="M12.0002 15.1305C8.86974 15.1305 6.18652 12.0001 6.18652 12.0001C6.18652 12.0001 8.86974 8.86963 12.0002 8.86963" fill="black"/>
<path d="M9.91309 10.9565H10.9566V13.0435H9.91309V10.9565Z" fill="#F0F0F0"/>
<path d="M13.0439 10.9565H14.0874V13.0435H13.0439V10.9565Z" fill="black"/>
<path d="M4.17434 13.0435C4.75064 13.0435 5.21783 12.5763 5.21783 12C5.21783 11.4237 4.75064 10.9565 4.17434 10.9565C3.59804 10.9565 3.13086 11.4237 3.13086 12C3.13086 12.5763 3.59804 13.0435 4.17434 13.0435Z" fill="#0052B4"/>
<path d="M19.8267 13.0435C20.403 13.0435 20.8702 12.5763 20.8702 12C20.8702 11.4237 20.403 10.9565 19.8267 10.9565C19.2504 10.9565 18.7832 11.4237 18.7832 12C18.7832 12.5763 19.2504 13.0435 19.8267 13.0435Z" fill="#0052B4"/>
</g>
<defs>
<clipPath id="clip0_86_13023">
<rect width="24" height="24" fill="white"/>
</clipPath>
</defs>
</svg>
