<svg width="24" height="24" viewBox="0 0 24 24" fill="none" xmlns="http://www.w3.org/2000/svg">
<g clip-path="url(#clip0_86_13061)">
<path d="M1.19072 6.78274C0.427875 8.36037 0 10.1303 0 12.0001C0 13.87 0.427875 15.6399 1.19072 17.2175L12 18.261L22.8093 17.2175C23.5721 15.6399 24 13.87 24 12.0001C24 10.1303 23.5721 8.36037 22.8093 6.78274L12 5.73926L1.19072 6.78274Z" fill="#F0F0F0"/>
<path d="M1.19141 17.2173C3.13236 21.2312 7.24278 23.9999 12.0003 23.9999C16.7577 23.9999 20.8682 21.2312 22.8091 17.2173H1.19141Z" fill="#6DA544"/>
<path d="M1.19141 6.78263H22.8091C20.8682 2.76872 16.7577 0 12.0003 0C7.24278 0 3.13236 2.76872 1.19141 6.78263Z" fill="#D80027"/>
<path d="M9.91309 15.1302H14.087V13.3563L13.2522 13.7737L12.0001 12.5215L10.7479 13.7737L9.91309 13.3563V15.1302Z" fill="#FFDA44"/>
<path d="M7.52504 13.0435L7.71934 13.6413H8.34793L7.83934 14.0108L8.03363 14.6087L7.52504 14.2392L7.01645 14.6087L7.21074 14.0108L6.70215 13.6413H7.33074L7.52504 13.0435Z" fill="#FFDA44"/>
<path d="M8.12758 10.9561L8.32187 11.5539H8.95047L8.44187 11.9234L8.63612 12.5213L8.12758 12.1518L7.61898 12.5213L7.81328 11.9234L7.30469 11.5539H7.93328L8.12758 10.9561Z" fill="#FFDA44"/>
<path d="M9.84926 9.39111L10.0436 9.98896H10.6721L10.1636 10.3585L10.3578 10.9563L9.84926 10.5868L9.34071 10.9563L9.53496 10.3585L9.02637 9.98896H9.65501L9.84926 9.39111Z" fill="#FFDA44"/>
<path d="M16.4752 13.0435L16.2809 13.6413H15.6523L16.1609 14.0108L15.9666 14.6087L16.4752 14.2392L16.9838 14.6087L16.7895 14.0108L17.2981 13.6413H16.6695L16.4752 13.0435Z" fill="#FFDA44"/>
<path d="M15.8727 10.9561L15.6784 11.5539H15.0498L15.5584 11.9234L15.3641 12.5213L15.8727 12.1518L16.3813 12.5213L16.187 11.9234L16.6956 11.5539H16.067L15.8727 10.9561Z" fill="#FFDA44"/>
<path d="M14.151 9.39111L13.9567 9.98896H13.3281L13.8366 10.3585L13.6424 10.9563L14.151 10.5868L14.6595 10.9563L14.4653 10.3585L14.9738 9.98896H14.3452L14.151 9.39111Z" fill="#FFDA44"/>
<path d="M11.9996 8.6084L12.1939 9.20624H12.8225L12.3139 9.57576L12.5082 10.1736L11.9996 9.80413L11.4911 10.1736L11.6854 9.57576L11.1768 9.20624H11.8054L11.9996 8.6084Z" fill="#FFDA44"/>
</g>
<defs>
<clipPath id="clip0_86_13061">
<rect width="24" height="24" fill="white"/>
</clipPath>
</defs>
</svg>
