<svg width="24" height="24" viewBox="0 0 24 24" fill="none" xmlns="http://www.w3.org/2000/svg">
<g clip-path="url(#clip0_86_11232)">
<path d="M12 24C18.6274 24 24 18.6274 24 12C24 5.37258 18.6274 0 12 0C5.37258 0 0 5.37258 0 12C0 18.6274 5.37258 24 12 24Z" fill="#F0F0F0"/>
<path d="M20.3972 3.42862C18.2329 1.308 15.2695 0 12.0001 0C10.9566 0 7.90352 1.308 5.73926 3.42862H20.3972Z" fill="#6DA544"/>
<path d="M11.9993 10.2855H23.8768C23.7037 9.07497 23.3501 7.92278 22.8438 6.85693H11.4775L11.9993 10.2855Z" fill="#6DA544"/>
<path d="M1.15515 17.143H22.8441C23.3505 16.0772 23.704 14.9249 23.8772 13.7144H0.12207C0.295273 14.9249 0.648758 16.0772 1.15515 17.143Z" fill="#6DA544"/>
<path d="M3.60254 20.5713C5.7669 22.6919 8.73024 23.9999 11.9996 23.9999C15.269 23.9999 18.2324 22.6919 20.3967 20.5713H3.60254Z" fill="#6DA544"/>
<path d="M11.9996 0C5.95435 0 0.954008 4.47052 0.12207 10.2857H11.9996V0Z" fill="#D80027"/>
<path d="M5.99926 9.19977L5.47754 8.15633V6.06936L6.78188 5.02588L8.08623 6.06936V7.63457L8.60794 7.11285V8.15633L7.56446 9.19977H5.99926Z" fill="#F0F0F0"/>
<path d="M3.19354 6L3.33168 6.42516H3.77868L3.41704 6.68798L3.55523 7.11309L3.19354 6.85031L2.83185 7.11309L2.97004 6.68798L2.6084 6.42516H3.0554L3.19354 6Z" fill="#F0F0F0"/>
<path d="M4.23748 4.95654L4.37563 5.3817H4.82267L4.46098 5.64453L4.59912 6.06964L4.23748 5.8069L3.87584 6.06964L4.01403 5.64453L3.65234 5.3817H4.0993L4.23748 4.95654Z" fill="#F0F0F0"/>
<path d="M5.28045 3.9126L5.41859 4.33775H5.86555L5.50395 4.60058L5.64205 5.02569L5.28045 4.76296L4.91877 5.02569L5.05691 4.60058L4.69531 4.33775H5.14227L5.28045 3.9126Z" fill="#F0F0F0"/>
<path d="M10.3712 6L10.2331 6.42516H9.78613L10.1477 6.68798L10.0096 7.11309L10.3712 6.85031L10.7329 7.11309L10.5948 6.68798L10.9564 6.42516H10.5094L10.3712 6Z" fill="#F0F0F0"/>
<path d="M9.32728 4.95654L9.18914 5.3817H8.74219L9.10378 5.64453L8.96564 6.06964L9.32728 5.8069L9.68897 6.06964L9.55078 5.64453L9.91242 5.3817H9.46547L9.32728 4.95654Z" fill="#F0F0F0"/>
<path d="M8.28436 3.9126L8.14617 4.33775H7.69922L8.06081 4.60058L7.92267 5.02569L8.28436 4.76296L8.646 5.02569L8.50786 4.60058L8.86945 4.33775H8.4225L8.28436 3.9126Z" fill="#F0F0F0"/>
<path d="M6.78241 3.39111L6.64422 3.81627H6.19727L6.55886 4.07905L6.42072 4.50416L6.78241 4.24143L7.14405 4.50416L7.00591 4.07905L7.3675 3.81627H6.92055L6.78241 3.39111Z" fill="#F0F0F0"/>
</g>
<defs>
<clipPath id="clip0_86_11232">
<rect width="24" height="24" fill="white"/>
</clipPath>
</defs>
</svg>
