<svg width="24" height="24" viewBox="0 0 24 24" fill="none" xmlns="http://www.w3.org/2000/svg">
<g clip-path="url(#clip0_86_11388)">
<path d="M12 0C18.6273 0 24 5.37261 24 12C24 18.6273 18.6273 24 12 24C5.37261 24 0 18.6273 0 12" fill="#FFDA44"/>
<path d="M11.7393 5.33317H21.9788C21.3046 4.32597 20.4818 3.42691 19.5419 2.6665H11.7393V5.33317Z" fill="#D80027"/>
<path d="M11.7393 10.6666H23.926C23.8237 9.74197 23.6165 8.84914 23.3164 8H11.7393V10.6666Z" fill="#D80027"/>
<path d="M0.683874 15.9997H23.3163C23.6164 15.1506 23.8237 14.2577 23.926 13.333H0.0742188C0.176406 14.2577 0.383687 15.1506 0.683874 15.9997Z" fill="#D80027"/>
<path d="M4.45828 21.3332H19.5419C20.4817 20.5728 21.3045 19.6737 21.9788 18.6665H2.02148C2.69573 19.6737 3.51848 20.5728 4.45828 21.3332Z" fill="#D80027"/>
<path d="M12 0C5.37262 0 -4.68746e-05 5.37261 3.06725e-10 12.0001C2.73871 12 5.37261 12.0001 12 12.0001L12 0Z" fill="#4A1F63"/>
<path d="M9.91278 6.26077V7.30425H9.39106V6.26077H8.34757V7.30425H7.82586V5.21729H5.73889V7.30425H5.21713V6.26077H4.17369V7.30425H3.65193V6.26077H2.6084V9.39117H10.9563V6.26077H9.91278Z" fill="#F0F0F0"/>
</g>
<defs>
<clipPath id="clip0_86_11388">
<rect width="24" height="24" fill="white"/>
</clipPath>
</defs>
</svg>
