<svg width="24" height="24" viewBox="0 0 24 24" fill="none" xmlns="http://www.w3.org/2000/svg">
<g clip-path="url(#clip0_86_11684)">
<path d="M12 24C18.6274 24 24 18.6274 24 12C24 5.37258 18.6274 0 12 0C5.37258 0 0 5.37258 0 12C0 18.6274 5.37258 24 12 24Z" fill="#F0F0F0"/>
<path d="M12 0C8.68623 0 5.68623 1.34316 3.51465 3.51469L12 12V0Z" fill="black"/>
<path d="M0 12C0 15.3137 1.34316 18.3137 3.51469 20.4853L12 12H0Z" fill="black"/>
<path d="M12 24C15.3137 24 18.3137 22.6568 20.4853 20.4853L12 12V24Z" fill="black"/>
<path d="M24 12C24 8.68623 22.6568 5.68623 20.4853 3.51465L12 12H24Z" fill="black"/>
<path d="M7.82617 8.34777L12.0001 8.86963L16.174 8.34777V5.84342L14.5044 6.67822L12.0001 4.17383L9.49572 6.67822L7.82617 5.84342V8.34777Z" fill="#FFDA44"/>
<path d="M12.0001 18.2611C9.69855 18.2611 7.82617 16.3887 7.82617 14.0872V9.91349L9.39138 8.34814H14.6088L16.174 9.91349V14.0872C16.174 16.3887 14.3016 18.2611 12.0001 18.2611Z" fill="#D80027"/>
<path d="M12.0003 16.6956C10.5618 16.6956 9.3916 15.5253 9.3916 14.0869V9.91309H14.609V14.0869C14.609 15.5253 13.4387 16.6956 12.0003 16.6956Z" fill="#F0F0F0"/>
<path d="M7.82617 8.34766H9.39138V9.91286H7.82617V8.34766Z" fill="#FFDA44"/>
<path d="M14.6084 8.34766H16.1736V9.91286H14.6084V8.34766Z" fill="#FFDA44"/>
<path d="M14.6084 11.7388H16.1736V13.304H14.6084V11.7388Z" fill="#FFDA44"/>
<path d="M7.82617 11.7388H9.39138V13.304H7.82617V11.7388Z" fill="#FFDA44"/>
<path d="M12.0004 16.6953C11.7278 16.6953 11.4649 16.6531 11.2178 16.5752V18.1859C11.4715 18.2342 11.7328 18.2605 12.0004 18.2605C12.268 18.2605 12.5293 18.2342 12.783 18.1859V16.5752C12.5359 16.6531 12.273 16.6953 12.0004 16.6953Z" fill="#FFDA44"/>
<path d="M9.42588 14.5103L8.17676 15.7594C8.39332 16.2525 8.70232 16.6958 9.0821 17.0676L10.1884 15.9613C9.79357 15.5799 9.51855 15.0755 9.42588 14.5103Z" fill="#FFDA44"/>
<path d="M15.8231 15.7594L14.5739 14.5103C14.4812 15.0755 14.2063 15.5798 13.8115 15.9614L14.9178 17.0676C15.2975 16.6958 15.6065 16.2525 15.8231 15.7594Z" fill="#FFDA44"/>
<path d="M11.4785 10.7827V11.6522C11.4785 11.9403 11.7121 12.174 12.0002 12.174C12.2884 12.174 12.522 11.9403 12.522 11.6522V10.7827H11.4785Z" fill="#0052B4"/>
<path d="M11.4785 14.2607V15.1303C11.4785 15.4184 11.7121 15.652 12.0002 15.652C12.2884 15.652 12.522 15.4184 12.522 15.1303V14.2607H11.4785Z" fill="#0052B4"/>
<path d="M13.0439 12.522V13.3916C13.0439 13.6797 13.2775 13.9133 13.5657 13.9133C13.8538 13.9133 14.0874 13.6797 14.0874 13.3916V12.522H13.0439Z" fill="#0052B4"/>
<path d="M11.4785 12.522V13.3916C11.4785 13.6797 11.7121 13.9133 12.0002 13.9133C12.2884 13.9133 12.522 13.6797 12.522 13.3916V12.522H11.4785Z" fill="#0052B4"/>
<path d="M9.91309 12.522V13.3916C9.91309 13.6797 10.1467 13.9133 10.4348 13.9133C10.7229 13.9133 10.9565 13.6797 10.9565 13.3916V12.522H9.91309Z" fill="#0052B4"/>
</g>
<defs>
<clipPath id="clip0_86_11684">
<rect width="24" height="24" fill="white"/>
</clipPath>
</defs>
</svg>
