<svg width="24" height="24" viewBox="0 0 24 24" fill="none" xmlns="http://www.w3.org/2000/svg">
<g clip-path="url(#clip0_86_12107)">
<path d="M12 24C18.6274 24 24 18.6274 24 12C24 5.37258 18.6274 0 12 0C5.37258 0 0 5.37258 0 12C0 18.6274 5.37258 24 12 24Z" fill="#F0F0F0"/>
<path d="M11.9997 0C9.87812 0 7.88556 0.551344 6.15625 1.51744V22.4826C7.88561 23.4487 9.87812 24 11.9997 24C18.6271 24 23.9997 18.6274 23.9997 12C23.9997 5.37262 18.6271 0 11.9997 0Z" fill="#6DA544"/>
<path d="M6.19178 1.49756C5.43686 1.91592 4.73195 2.41317 4.08794 2.97848C4.15305 2.92139 4.21881 2.86495 4.28509 2.80926L13.4756 11.9999L4.28505 21.1905C4.21872 21.1348 4.153 21.0783 4.08789 21.0212C4.73191 21.5865 5.43686 22.0837 6.19173 22.5022L24 11.9999L6.19178 1.49756Z" fill="#F0F0F0"/>
<path d="M5.17837 2.12744C4.81241 2.38085 4.46095 2.65352 4.12602 2.94494L12.0001 12.0002L4.12598 21.0554C4.4609 21.3468 4.81237 21.6195 5.17832 21.8729L21.9459 12.0002L5.17837 2.12744Z" fill="#FFDA44"/>
<path d="M4.28504 2.80957C4.01827 3.03373 3.76084 3.26871 3.51465 3.51485L10.9565 12.0002L3.51465 20.4855C3.76084 20.7317 4.01823 20.9667 4.28504 21.1908L13.4756 12.0002L4.28504 2.80957Z" fill="black"/>
<path d="M3.51471 3.51465C-1.17157 8.20093 -1.17157 15.7989 3.51471 20.4853C5.45126 18.5487 7.31374 16.6862 12 12L3.51471 3.51465Z" fill="#D80027"/>
</g>
<defs>
<clipPath id="clip0_86_12107">
<rect width="24" height="24" fill="white"/>
</clipPath>
</defs>
</svg>
