<svg width="24" height="24" viewBox="0 0 24 24" fill="none" xmlns="http://www.w3.org/2000/svg">
<g clip-path="url(#clip0_86_12114)">
<path d="M24 12C24 18.6274 18.6274 24 12 24C5.37262 24 0 18.6274 0 12C0 5.37262 12 0 12 0C12 0 24 5.37262 24 12Z" fill="#A2001D"/>
<path d="M0 12C0 5.37262 5.37262 0 12 0C18.6274 0 24 5.37262 24 12" fill="#0052B4"/>
<path d="M16.174 15.1305L12.0001 14.6088L7.82617 15.1305V8.86963H16.174V15.1305Z" fill="#F0F0F0"/>
<path d="M12.0001 14.6085C13.1527 14.6085 14.087 13.6741 14.087 12.5215C14.087 11.3689 13.1527 10.4346 12.0001 10.4346C10.8475 10.4346 9.91309 11.3689 9.91309 12.5215C9.91309 13.6741 10.8475 14.6085 12.0001 14.6085Z" fill="#0052B4"/>
<path d="M11.9995 13.565C12.5758 13.565 13.043 13.0978 13.043 12.5215C13.043 11.9452 12.5758 11.478 11.9995 11.478C11.4232 11.478 10.9561 11.9452 10.9561 12.5215C10.9561 13.0978 11.4232 13.565 11.9995 13.565Z" fill="#A2001D"/>
<path d="M10.4346 9.91309H13.565L11.9998 11.4783L10.4346 9.91309Z" fill="#6DA544"/>
<path d="M11.4785 10.9565H12.522V14.087H11.4785V10.9565Z" fill="#FFDA44"/>
<path d="M13.6696 13.7739H10.3304L7.82617 15.1305H16.174L13.6696 13.7739Z" fill="#6DA544"/>
</g>
<defs>
<clipPath id="clip0_86_12114">
<rect width="24" height="24" fill="white"/>
</clipPath>
</defs>
</svg>
