<svg width="24" height="24" viewBox="0 0 24 24" fill="none" xmlns="http://www.w3.org/2000/svg">
<g clip-path="url(#clip0_86_12352)">
<path d="M17.2175 1.19072C15.6399 0.427875 13.87 0 12.0001 0C10.1302 0 8.36037 0.427875 6.78274 1.19072L5.73926 12L6.78274 22.8093C8.36037 23.5721 10.1302 24 12.0001 24C13.87 24 15.6399 23.5721 17.2175 22.8093L18.261 12L17.2175 1.19072Z" fill="#FFDA44"/>
<path d="M6.78263 1.19092C2.76867 3.13187 0 7.24229 0 11.9998C0 16.7573 2.76867 20.8677 6.78263 22.8086V1.19092Z" fill="#0052B4"/>
<path d="M17.2178 1.19092V22.8086C21.2317 20.8677 24.0004 16.7573 24.0004 11.9998C24.0004 7.24229 21.2317 3.13187 17.2178 1.19092Z" fill="#0052B4"/>
<path d="M15.3914 13.0435L16.174 14.087V9.91309L15.3914 10.9566H13.0435V8.60875L14.087 7.82617H9.91309L10.9566 8.60875V10.9566H8.60875L7.82617 9.91309V14.087L8.60875 13.0435H10.9566V15.3914L9.91309 16.174H14.087L13.0435 15.3914V13.0435H15.3914Z" fill="#D80027"/>
<path d="M15.13 11.4784H12.5213V8.86963H11.4779V11.4784H8.86914V12.5218H11.4779V15.1305H12.5213V12.5218H15.13V11.4784Z" fill="#F0F0F0"/>
</g>
<defs>
<clipPath id="clip0_86_12352">
<rect width="24" height="24" fill="white"/>
</clipPath>
</defs>
</svg>
