<svg width="24" height="24" viewBox="0 0 24 24" fill="none" xmlns="http://www.w3.org/2000/svg">
<g clip-path="url(#clip0_86_12359)">
<path d="M0 11.9999C0 13.4677 0.264047 14.8738 0.746391 16.1737L12 16.6955L23.2536 16.1738C23.736 14.8738 24 13.4677 24 11.9999C24 10.532 23.736 9.12595 23.2536 7.82596L12 7.3042L0.746391 7.82592C0.264047 9.12595 0 10.532 0 11.9999H0Z" fill="#D80027"/>
<path d="M11.9997 0C6.84013 0 2.44161 3.2565 0.746094 7.82611H23.2534C21.5578 3.2565 17.1593 0 11.9997 0Z" fill="black"/>
<path d="M23.2533 16.1738H0.746094C2.44161 20.7434 6.84012 23.9999 11.9997 23.9999C17.1593 23.9999 21.5578 20.7434 23.2533 16.1738Z" fill="#496E2D"/>
<path d="M15.5864 5.73909L14.1209 5.04974L14.9013 3.63041L13.3099 3.93487L13.1082 2.32715L11.9997 3.50957L10.8913 2.32715L10.6896 3.93487L9.09821 3.63041L9.87863 5.04974L8.41309 5.73909H15.5864Z" fill="#D80027"/>
</g>
<defs>
<clipPath id="clip0_86_12359">
<rect width="24" height="24" fill="white"/>
</clipPath>
</defs>
</svg>
