<svg width="24" height="24" viewBox="0 0 24 24" fill="none" xmlns="http://www.w3.org/2000/svg">
<g clip-path="url(#clip0_86_12404)">
<path d="M12 24C18.6274 24 24 18.6274 24 12C24 5.37258 18.6274 0 12 0C5.37258 0 0 5.37258 0 12C0 18.6274 5.37258 24 12 24Z" fill="#496E2D"/>
<path d="M12.0001 13.8631C10.002 13.8631 8.33275 12.4588 7.9232 10.5835C7.8603 10.8718 7.82617 11.1707 7.82617 11.478C7.82617 13.7832 9.69484 15.6519 12.0001 15.6519C14.3053 15.6519 16.174 13.7832 16.174 11.478C16.174 11.1707 16.1398 10.8718 16.0769 10.5835C15.6674 12.4588 13.9982 13.8631 12.0001 13.8631Z" fill="#FFDA44"/>
<path d="M12.0002 8.34766L12.3887 9.54339H13.6461L12.6289 10.2824L13.0174 11.4781L12.0002 10.7391L10.9831 11.4781L11.3716 10.2824L10.3545 9.54339H11.6117L12.0002 8.34766Z" fill="#FFDA44"/>
</g>
<defs>
<clipPath id="clip0_86_12404">
<rect width="24" height="24" fill="white"/>
</clipPath>
</defs>
</svg>
