<svg width="24" height="24" viewBox="0 0 24 24" fill="none" xmlns="http://www.w3.org/2000/svg">
<g clip-path="url(#clip0_86_12513)">
<path d="M12 24C18.6274 24 24 18.6274 24 12C24 5.37258 18.6274 0 12 0C5.37258 0 0 5.37258 0 12C0 18.6274 5.37258 24 12 24Z" fill="#0052B4"/>
<path d="M17.1496 12.8373C17.1937 12.5647 17.217 12.2851 17.217 12.0001C17.217 12.2851 17.1937 12.5647 17.1496 12.8373L19.304 12.0001L17.1496 11.163L15.9662 10.7032L14.0436 9.95616L13.2966 8.03358C14.5563 8.4465 15.5532 9.44339 15.9662 10.7032L17.1495 11.163C16.7919 8.95533 15.0444 7.20774 12.8368 6.85018L11.9997 4.6958L11.1625 6.85022C8.95484 7.20788 7.20734 8.95538 6.84973 11.163L4.69531 12.0001L6.84978 12.8373C7.20739 15.045 8.95489 16.7925 11.1625 17.1501L11.9997 19.3045L12.8368 17.1501C15.0444 16.7925 16.792 15.0449 17.1496 12.8373ZM13.2375 10.7623L11.9997 12.0001H16.423L13.2375 13.238L11.9997 12.0001V16.4235L10.7618 13.238L11.9997 12.0001H7.5763L10.7618 10.7623L11.9997 12.0001V7.57678L13.2375 10.7623ZM10.7027 8.03363L9.95558 9.95621L8.03309 10.7033C8.44602 9.44339 9.44291 8.4466 10.7027 8.03363ZM8.03314 13.2971L9.95558 14.0442L10.7027 15.9667C9.44291 15.5537 8.44611 14.5569 8.03314 13.2971ZM13.2966 15.9667L14.0437 14.0442L15.9662 13.2971C15.5532 14.5569 14.5564 15.5537 13.2966 15.9667Z" fill="#F0F0F0"/>
<path d="M16.4234 12H12L13.2379 13.2379L16.4234 12Z" fill="#0052B4"/>
<path d="M7.57617 12H11.9995L10.7617 10.7622L7.57617 12Z" fill="#0052B4"/>
<path d="M11.9996 16.4234V12L10.7617 13.2379L11.9996 16.4234Z" fill="#0052B4"/>
<path d="M12 12L13.2379 10.7622L12 7.57666V12Z" fill="#0052B4"/>
<path d="M11.4785 1.56543H12.522V3.6524H11.4785V1.56543Z" fill="#F0F0F0"/>
<path d="M1.56543 11.4785H3.6524V12.522H1.56543V11.4785Z" fill="#F0F0F0"/>
<path d="M11.4785 20.3481H12.522V22.4351H11.4785V20.3481Z" fill="#F0F0F0"/>
<path d="M20.3477 11.4785H22.4346V12.522H20.3477V11.4785Z" fill="#F0F0F0"/>
</g>
<defs>
<clipPath id="clip0_86_12513">
<rect width="24" height="24" fill="white"/>
</clipPath>
</defs>
</svg>
