<svg width="24" height="24" viewBox="0 0 24 24" fill="none" xmlns="http://www.w3.org/2000/svg">
<g clip-path="url(#clip0_86_12757)">
<path d="M16.1735 0.746344C14.8735 0.264047 13.4674 6.23894e-09 11.9996 6.23894e-09C10.5318 -4.68688e-05 9.1257 0.264047 7.82571 0.746344L6.78223 12L7.82571 23.2536C9.12565 23.736 10.5317 24 11.9996 24C13.4674 24 14.8735 23.736 16.1735 23.2536L17.2169 12L16.1735 0.746344Z" fill="#FFDA44"/>
<path d="M23.9999 12.0002C23.9999 6.84066 20.7434 2.44205 16.1738 0.746582V23.2539C20.7434 21.5582 23.9999 17.1598 23.9999 12.0002Z" fill="#D80027"/>
<path d="M0 12.0001C0 17.1598 3.2565 21.5582 7.82602 23.2538L7.82606 0.746582C3.2565 2.44205 0 6.84052 0 12.0001H0Z" fill="#0052B4"/>
</g>
<defs>
<clipPath id="clip0_86_12757">
<rect width="24" height="24" fill="white"/>
</clipPath>
</defs>
</svg>
