<svg width="24" height="24" viewBox="0 0 24 24" fill="none" xmlns="http://www.w3.org/2000/svg">
<g clip-path="url(#clip0_86_12894)">
<path d="M10.9565 13.0435C10.9565 13.0435 3.52168 3.51305 3.51465 3.51473C5.68618 1.34316 8.68623 0 12 0C18.6273 0 24 5.37262 24 12L10.9565 13.0435Z" fill="#D80027"/>
<path d="M10.9565 12C10.9565 12 3.52168 20.487 3.51465 20.4853C5.68618 22.6568 8.68623 24 12 24C18.6273 24 24 18.6274 24 12H10.9565Z" fill="#0052B4"/>
<path d="M3.51471 3.51465C-1.17157 8.20093 -1.17157 15.7989 3.51471 20.4853C5.45126 18.5487 7.31374 16.6862 12 12L3.51471 3.51465Z" fill="#F0F0F0"/>
<path d="M1.3157 12C1.30914 12.0862 1.30469 12.173 1.30469 12.2608C1.30469 14.1337 2.82306 15.6521 4.696 15.6521C6.56894 15.6521 8.08731 14.1337 8.08731 12.2608C8.08731 12.173 8.08286 12.0861 8.0763 12H1.3157Z" fill="#FFDA44"/>
<path d="M4.69583 10.4346C5.27213 10.4346 5.73931 9.96744 5.73931 9.39114C5.73931 8.81484 5.27213 8.34766 4.69583 8.34766C4.11953 8.34766 3.65234 8.81484 3.65234 9.39114C3.65234 9.96744 4.11953 10.4346 4.69583 10.4346Z" fill="#FFDA44"/>
<path d="M2.34766 9.13037V12.5217C2.34766 14.3189 4.69548 14.8695 4.69548 14.8695C4.69548 14.8695 7.04331 14.3189 7.04331 12.5217V9.13037H2.34766Z" fill="#D80027"/>
<path d="M4.69712 13.7774C4.26155 13.6207 3.3916 13.2201 3.3916 12.5217V10.1738H6.00034V12.5217C6.00034 13.2224 5.13048 13.622 4.69712 13.7774Z" fill="#338AF3"/>
<path d="M5.21743 11.4784V10.9567L4.69571 10.6958L4.17395 10.9567V11.4784L3.91309 11.7393V12.7828H5.47834V11.7393L5.21743 11.4784Z" fill="#F3F3F3"/>
</g>
<defs>
<clipPath id="clip0_86_12894">
<rect width="24" height="24" fill="white"/>
</clipPath>
</defs>
</svg>
