<svg width="24" height="24" viewBox="0 0 24 24" fill="none" xmlns="http://www.w3.org/2000/svg">
<g clip-path="url(#clip0_86_12904)">
<path d="M12 24C18.6274 24 24 18.6274 24 12C24 5.37258 18.6274 0 12 0C5.37258 0 0 5.37258 0 12C0 18.6274 5.37258 24 12 24Z" fill="#F0F0F0"/>
<path d="M12 24.0001C18.6274 24.0001 24 18.6274 24 12.0001C24 10.5322 23.736 9.12611 23.2536 7.82617H0.746391C0.264047 9.12611 0 10.5322 0 12.0001C0 18.6274 5.37262 24.0001 12 24.0001Z" fill="#0052B4"/>
<path d="M11.9997 23.9999C17.1593 23.9999 21.5578 20.7434 23.2533 16.1738H0.746094C2.44161 20.7434 6.84012 23.9999 11.9997 23.9999Z" fill="#D80027"/>
<path d="M3.10352 6.78271V12.7689C3.10352 16.1741 7.552 17.2175 7.552 17.2175C7.552 17.2175 12.0004 16.1741 12.0004 12.7689V6.78271H3.10352Z" fill="#F0F0F0"/>
<path d="M4.14648 6.78271V12.7689C4.14648 13.1687 4.23527 13.5462 4.41114 13.9002H10.6918C10.8677 13.5463 10.9564 13.1687 10.9564 12.7689V6.78271H4.14648Z" fill="#D80027"/>
<path d="M9.63873 10.9566H8.07358V9.91309H9.11706V8.86961H8.07358V7.82617H7.03009V8.86961H5.98666V9.91309H7.03009V10.9566H5.46484V12.0001H7.03009V13.0435H8.07358V12.0001H9.63873V10.9566Z" fill="#F0F0F0"/>
<path d="M5.8344 15.3569C6.50682 15.7795 7.19766 16.0248 7.55134 16.134C7.90501 16.0249 8.59585 15.7795 9.26827 15.3569C9.94637 14.9307 10.4217 14.4433 10.6916 13.9003C10.3939 13.6897 10.0307 13.5655 9.6383 13.5655C9.49543 13.5655 9.35663 13.5824 9.22318 13.6135C8.94038 12.9709 8.29843 12.522 7.55138 12.522C6.80434 12.522 6.16234 12.9709 5.87959 13.6135C5.74613 13.5824 5.60729 13.5655 5.46446 13.5655C5.07207 13.5655 4.70884 13.6897 4.41113 13.9003C4.6809 14.4433 5.15626 14.9307 5.8344 15.3569Z" fill="#0052B4"/>
</g>
<defs>
<clipPath id="clip0_86_12904">
<rect width="24" height="24" fill="white"/>
</clipPath>
</defs>
</svg>
