<svg width="24" height="24" viewBox="0 0 24 24" fill="none" xmlns="http://www.w3.org/2000/svg">
<g clip-path="url(#clip0_86_13122)">
<path d="M23.5863 8.86955C22.2093 3.76036 17.544 0 11.9997 0C6.45537 0 1.79009 3.76036 0.413086 8.86955L11.9997 9.39131L23.5863 8.86955Z" fill="#A2001D"/>
<path d="M0.413086 15.1307C1.79009 20.2398 6.45537 24.0002 11.9997 24.0002C17.544 24.0002 22.2093 20.2398 23.5863 15.1307L11.9997 14.6089L0.413086 15.1307Z" fill="#A2001D"/>
<path d="M23.5866 8.86963H0.413391C0.144375 9.86774 0 10.9169 0 12.0001C0 13.0832 0.144375 14.1324 0.413391 15.1305H23.5867C23.8556 14.1324 24 13.0832 24 12.0001C24 10.9169 23.8556 9.86774 23.5866 8.86963Z" fill="#6DA544"/>
</g>
<defs>
<clipPath id="clip0_86_13122">
<rect width="24" height="24" fill="white"/>
</clipPath>
</defs>
</svg>
