<svg width="24" height="24" viewBox="0 0 24 24" fill="none" xmlns="http://www.w3.org/2000/svg">
<g clip-path="url(#clip0_86_13172)">
<path d="M24 12C24 18.6274 18.6274 24 12 24C5.37262 24 0 18.6274 0 12C0 12.0029 12 0.0013125 12 0C18.6274 0 24 5.37262 24 12Z" fill="#0052B4"/>
<path d="M11.9678 11.9999H11.9999C11.9999 11.9891 11.9999 11.9786 11.9999 11.9678C11.9892 11.9785 11.9785 11.9892 11.9678 11.9999Z" fill="#F0F0F0"/>
<path d="M12 6.26086C12 4.14937 12 2.76586 12 0H11.998C5.37145 0.001125 0 5.37323 0 12H6.26086V8.47448L9.78638 12H11.9679C11.9786 11.9893 11.9893 11.9786 12 11.9679C12 11.1594 12 10.4381 12 9.78647L8.47444 6.26086H12Z" fill="#F0F0F0"/>
<path d="M6.07124 1.56543C4.19441 2.63413 2.63409 4.19441 1.56543 6.07124V12.0002H4.69588V4.69598V4.69588H12.0002C12.0002 3.70855 12.0002 2.76796 12.0002 1.56543H6.07124Z" fill="#D80027"/>
<path d="M11.9999 10.5247L7.73637 6.26123H6.26074V6.26132L11.9998 12.0003H11.9999C11.9999 12.0003 11.9999 10.9828 11.9999 10.5247Z" fill="#D80027"/>
<path d="M13.5654 6.26074V11.9998C13.5654 14.7955 17.2176 15.6521 17.2176 15.6521C17.2176 15.6521 20.8698 14.7955 20.8698 11.9998V6.26074H13.5654Z" fill="#FFDA44"/>
<path d="M16.6954 8.34768C16.6954 8.92401 16.2282 10.4347 15.6519 10.4347C15.0756 10.4347 14.6084 8.92401 14.6084 8.34768C14.6084 7.77136 15.6519 7.3042 15.6519 7.3042C15.6519 7.3042 16.6954 7.77136 16.6954 8.34768Z" fill="#FF9811"/>
<path d="M19.4642 9.48417C19.6326 9.07331 19.7635 8.47275 19.7635 8.17378C19.7635 7.6935 19.1374 7.3042 19.1374 7.3042C19.1374 7.3042 18.5113 7.69354 18.5113 8.17378C18.5113 8.47275 18.6423 9.07331 18.8107 9.48417L18.4492 10.3003C18.6617 10.3866 18.8939 10.4346 19.1374 10.4346C19.3809 10.4346 19.6131 10.3866 19.8256 10.3003L19.4642 9.48417Z" fill="#A2001D"/>
<path d="M16.4348 12.0002C16.4348 12.0002 15.9131 13.0437 15.9131 14.0872H18.5218C18.5217 13.0437 18 12.0002 18 12.0002L17.2174 11.4785L16.4348 12.0002Z" fill="#6DA544"/>
<path d="M17.9998 12V11.7392C17.9998 11.307 17.6494 10.9565 17.2172 10.9565C16.785 10.9565 16.4346 11.3069 16.4346 11.7392V12H17.9998Z" fill="#D80027"/>
</g>
<defs>
<clipPath id="clip0_86_13172">
<rect width="24" height="24" fill="white"/>
</clipPath>
</defs>
</svg>
