<svg width="24" height="24" viewBox="0 0 24 24" fill="none" xmlns="http://www.w3.org/2000/svg">
<g clip-path="url(#clip0_86_13241)">
<path d="M12 24C18.6274 24 24 18.6274 24 12C24 5.37258 18.6274 0 12 0C5.37258 0 0 5.37258 0 12C0 18.6274 5.37258 24 12 24Z" fill="#338AF3"/>
<path d="M11.9649 7.82617C9.65964 7.82617 7.79102 9.69489 7.79102 12.0001C7.79102 14.3052 9.65969 16.174 11.9649 16.174C14.27 16.174 16.1388 14.3052 16.1388 12.0001C16.1388 9.69489 14.27 7.82617 11.9649 7.82617ZM10.9214 12.0001C10.9214 11.4238 11.3886 10.9566 11.9649 10.9566C12.5412 10.9566 13.0084 11.4238 13.0084 12.0001C13.0084 12.5764 12.5412 13.0435 11.9649 13.0435C11.3886 13.0435 10.9214 12.5764 10.9214 12.0001ZM13.0468 10.2151C12.8848 10.1167 12.7083 10.0403 12.5214 9.9887V8.91995C12.992 9.00442 13.426 9.19375 13.7985 9.46347L13.0468 10.2151ZM11.4779 9.97084C11.2821 10.0177 11.0972 10.0921 10.9272 10.1897L10.172 9.43455C10.5538 9.16727 10.9976 8.98262 11.4779 8.90748V9.97084ZM10.9271 13.8104C11.0971 13.908 11.2821 13.9825 11.4779 14.0292V15.0925C10.9975 15.0175 10.5538 14.8328 10.172 14.5655L10.9271 13.8104ZM12.5214 14.0114C12.7083 13.9598 12.8849 13.8835 13.0468 13.7851L13.7984 14.5367C13.426 14.8064 12.992 14.9957 12.5214 15.0802V14.0115H12.5214V14.0114ZM13.7752 13.0379C13.8671 12.8779 13.939 12.7048 13.9861 12.5218H15.0512C14.9728 12.9888 14.7912 13.4205 14.5304 13.7929L13.7752 13.0379ZM13.9861 11.4783C13.939 11.2953 13.8671 11.1224 13.7752 10.9623L14.5304 10.2072C14.7912 10.5797 14.9728 11.0113 15.0512 11.4783H13.9861V11.4783H13.9861ZM9.42827 10.1665L10.1799 10.9182C10.0754 11.0902 9.99513 11.2785 9.94366 11.4783H8.87856C8.9598 10.9943 9.15194 10.5482 9.42827 10.1665ZM8.87856 12.5218H9.94366C9.99508 12.7217 10.0754 12.9099 10.1799 13.0819L9.42827 13.8336C9.15194 13.452 8.9598 13.0059 8.87856 12.5218Z" fill="#F0F0F0"/>
<path d="M18.7478 12.0001C18.7478 10.1448 18.0026 8.46382 16.7955 7.23926L15.6888 8.34602C16.6126 9.28727 17.1826 10.5771 17.1826 12.0001C17.1826 14.8816 14.8466 17.2175 11.9652 17.2175C9.08365 17.2175 6.74782 14.8816 6.74782 12.0001C6.74782 10.5593 7.33174 9.25498 8.27595 8.31087L7.16918 7.2041C5.94176 8.43152 5.18262 10.1272 5.18262 12.0001C5.18262 15.1039 7.26748 17.7208 10.1132 18.5268C9.80121 19.1194 9.84874 19.8656 10.2944 20.4218C10.8798 19.9527 11.4859 19.467 12 19.055C12.5141 19.467 13.1202 19.9527 13.7055 20.4218C14.1556 19.8601 14.1999 19.1044 13.8776 18.5089C16.6922 17.6832 18.7478 15.0819 18.7478 12.0001Z" fill="#F0F0F0"/>
</g>
<defs>
<clipPath id="clip0_86_13241">
<rect width="24" height="24" fill="white"/>
</clipPath>
</defs>
</svg>
