<svg width="24" height="24" viewBox="0 0 24 24" fill="none" xmlns="http://www.w3.org/2000/svg">
<g clip-path="url(#clip0_86_13332)">
<path d="M12 24C18.6274 24 24 18.6274 24 12C24 5.37258 18.6274 0 12 0C5.37258 0 0 5.37258 0 12C0 18.6274 5.37258 24 12 24Z" fill="#FCFCFC"/>
<path d="M14.0383 8.38325C14.0383 7.25768 13.1258 6.34521 12.0002 6.34521C10.8746 6.34521 9.96216 7.25768 9.96216 8.38325H5.47852C5.47852 9.49142 6.44386 10.3899 7.55203 10.3899H7.48528C7.48528 11.4981 8.38359 12.3966 9.49195 12.3966C9.49195 13.3779 10.1967 14.1932 11.1274 14.3675L11.1222 14.3792H12.8783L12.8731 14.3675C13.8039 14.1931 14.5086 13.3778 14.5086 12.3966C15.6169 12.3966 16.5152 11.4981 16.5152 10.3899H16.4484C17.5566 10.3899 18.522 9.49142 18.522 8.38325H14.0383Z" fill="#FFDA44"/>
<path d="M11.1045 14.1714L9.84082 17.0243C10.5076 17.2954 11.2363 17.446 12.0004 17.446C12.7646 17.446 13.4933 17.2954 14.16 17.0243L12.8964 14.1714H11.1045Z" fill="#FFDA44"/>
<path d="M9.3916 9.38574V12.8963C9.3916 14.893 12.0003 15.5049 12.0003 15.5049C12.0003 15.5049 14.609 14.893 14.609 12.8963V9.38574H9.3916Z" fill="#F0F0F0"/>
<path d="M2.91024 12.0845L4.32113 16.0306L5.71735 12.0845H6.78291L4.74732 17.3018H3.8949L1.84473 12.0845H2.91024Z" fill="#338AF3"/>
<path d="M19.3047 17.3018V12.0845H20.3187V17.3018H19.3047Z" fill="#338AF3"/>
<path d="M10.4346 10.519V14.7731C10.7932 15.0371 11.1791 15.2186 11.4781 15.3349V10.519H10.4346Z" fill="#D80027"/>
<path d="M13.565 10.519V14.7731C13.2063 15.0371 12.8205 15.2186 12.5215 15.3349V10.519H13.565Z" fill="#D80027"/>
<path d="M9.3916 9.38574H14.609V11.0412H9.3916V9.38574Z" fill="#0052B4"/>
</g>
<defs>
<clipPath id="clip0_86_13332">
<rect width="24" height="24" fill="white"/>
</clipPath>
</defs>
</svg>
