<svg width="24" height="24" viewBox="0 0 24 24" fill="none" xmlns="http://www.w3.org/2000/svg">
<g clip-path="url(#clip0_86_13353)">
<path d="M12 24C18.6274 24 24 18.6274 24 12C24 5.37258 18.6274 0 12 0C5.37258 0 0 5.37258 0 12C0 18.6274 5.37258 24 12 24Z" fill="#496E2D"/>
<path d="M16.6957 12H12V24C13.4027 24 14.7488 23.7585 16 23.3163L16.6957 12Z" fill="#D80027"/>
<path d="M20.0003 20.9434C22.4551 18.7462 24.0003 15.5537 24.0003 12H19.3047L20.0003 20.9434Z" fill="#FF9811"/>
<path d="M16 12V23.3163C17.4905 22.7894 18.8458 21.9766 20 20.9435V12H16Z" fill="black"/>
<path d="M22.174 7.8262H19.0436C19.0436 7.24992 18.5764 6.78271 18.0001 6.78271C17.4238 6.78271 16.9566 7.24992 16.9566 7.8262H13.8262C13.8262 8.40253 14.3282 8.86968 14.9044 8.86968H14.8697C14.8697 9.44601 15.3368 9.91317 15.9131 9.91317C15.9131 10.4895 16.3803 10.9567 16.9566 10.9567H19.0436C19.6199 10.9567 20.0871 10.4895 20.0871 9.91317C20.6634 9.91317 21.1306 9.44601 21.1306 8.86968H21.0958C21.6721 8.86964 22.174 8.40248 22.174 7.8262Z" fill="#FF9811"/>
</g>
<defs>
<clipPath id="clip0_86_13353">
<rect width="24" height="24" fill="white"/>
</clipPath>
</defs>
</svg>
