<svg width="24" height="24" viewBox="0 0 24 24" fill="none" xmlns="http://www.w3.org/2000/svg">
<g clip-path="url(#clip0_86_12827)">
<path d="M12 24C18.6274 24 24 18.6274 24 12C24 5.37258 18.6274 0 12 0C5.37258 0 0 5.37258 0 12C0 18.6274 5.37258 24 12 24Z" fill="#6DA544"/>
<path d="M6.78223 14.3481C6.78223 15.2126 7.48301 15.9133 8.34743 15.9133H13.0431C13.0431 16.6337 13.6271 17.2177 14.3474 17.2177H15.9126C16.633 17.2177 17.217 16.6337 17.217 15.9133V14.3481H6.78223Z" fill="#F0F0F0"/>
<path d="M17.3482 6.78271V10.4349C17.3482 11.0103 16.8801 11.4784 16.3047 11.4784V13.0436C17.7431 13.0436 18.9134 11.8733 18.9134 10.4349V6.78271H17.3482Z" fill="#F0F0F0"/>
<path d="M6.1304 10.4349C6.1304 11.0103 5.6623 11.4784 5.08691 11.4784V13.0436C6.52537 13.0436 7.6956 11.8733 7.6956 10.4349V6.78271H6.1304V10.4349Z" fill="#F0F0F0"/>
<path d="M15 6.78271H16.5652V10.4349H15V6.78271Z" fill="#F0F0F0"/>
<path d="M12.6524 8.86968C12.6524 9.01354 12.5354 9.13054 12.3915 9.13054C12.2477 9.13054 12.1307 9.0135 12.1307 8.86968V6.78271H10.5655V8.86968C10.5655 9.01354 10.4484 9.13054 10.3046 9.13054C10.1608 9.13054 10.0438 9.0135 10.0438 8.86968V6.78271H8.47852V8.86968C8.47852 9.87661 9.2977 10.6958 10.3046 10.6958C10.6924 10.6958 11.052 10.5739 11.3481 10.3669C11.6441 10.5739 12.0038 10.6958 12.3916 10.6958C12.4697 10.6958 12.5465 10.6903 12.622 10.6807C12.5111 11.1377 12.0995 11.4784 11.609 11.4784V13.0436C13.0474 13.0436 14.2177 11.8733 14.2177 10.4349V8.86968V6.78271H12.6525V8.86968H12.6524Z" fill="#F0F0F0"/>
<path d="M8.47852 11.4785H10.8263V13.0437H8.47852V11.4785Z" fill="#F0F0F0"/>
</g>
<defs>
<clipPath id="clip0_86_12827">
<rect width="24" height="24" fill="white"/>
</clipPath>
</defs>
</svg>
