<svg width="24" height="24" viewBox="0 0 24 24" fill="none" xmlns="http://www.w3.org/2000/svg">
<g clip-path="url(#clip0_86_13144)">
<path d="M11.9995 0C11.1035 0 10.2308 0.0990469 9.39086 0.285234L8.86914 12L9.39086 23.7147C10.2308 23.9009 11.1036 24 11.9995 24C18.6269 24 23.9995 18.6274 23.9995 12C23.9995 5.37258 18.6269 0 11.9995 0V0Z" fill="#496E2D"/>
<path d="M3.13041 3.91748C1.18584 6.05011 0 8.88651 0 12C0 15.1136 1.18589 17.95 3.13045 20.0827L3.65217 12L3.13041 3.91748Z" fill="#496E2D"/>
<path d="M17.5512 9.0518C18.1416 7.40621 17.4783 5.61647 16.0548 4.7251C16.3109 4.75843 16.5672 4.81871 16.8201 4.90941C18.7187 5.5906 19.7056 7.68179 19.0244 9.58032C18.3432 11.479 16.252 12.4658 14.3535 11.7846C14.1005 11.6939 13.8643 11.5774 13.6455 11.4404C15.311 11.6573 16.9608 10.6974 17.5512 9.0518Z" fill="#F0F0F0"/>
<path d="M14.2766 4.27393L13.7636 4.93683L12.9747 4.65375L13.4465 5.34647L12.9336 6.00929L13.7382 5.77463L14.2101 6.46725L14.2355 5.6295L15.0401 5.3948L14.2513 5.11182L14.2766 4.27393Z" fill="#F0F0F0"/>
<path d="M15.6614 6.43408L15.1484 7.09694L14.3595 6.81386L14.8314 7.50658L14.3184 8.16939L15.123 7.93464L15.5949 8.62741L15.6203 7.78961L16.4249 7.55486L15.636 7.27183L15.6614 6.43408Z" fill="#F0F0F0"/>
<path d="M11.8342 5.06055L11.3212 5.72336L10.5323 5.44037L11.0042 6.13305L10.4912 6.79591L11.2958 6.5612L11.7677 7.25388L11.7931 6.41612L12.5977 6.18142L11.8089 5.89834L11.8342 5.06055Z" fill="#F0F0F0"/>
<path d="M11.7776 7.53467L11.2646 8.19753L10.4757 7.9145L10.9477 8.60721L10.4346 9.27003L11.2393 9.03537L11.7112 9.728L11.7365 8.89025L12.5412 8.65554L11.7522 8.37246L11.7776 7.53467Z" fill="#F0F0F0"/>
<path d="M14.1321 8.37939L13.6191 9.04221L12.8302 8.75918L13.3022 9.45189L12.7891 10.1147L13.5938 9.88L14.0657 10.5727L14.091 9.73488L14.8957 9.50022L14.1067 9.21719L14.1321 8.37939Z" fill="#F0F0F0"/>
<path d="M3.13086 3.91731V20.0825C4.76586 21.8756 6.93758 23.1706 9.39172 23.7146V0.285156C6.93753 0.829188 4.76591 2.12411 3.13086 3.91731Z" fill="#D80027"/>
<path d="M5.51985 6.31822L4.47168 5.53737V4.43314L5.51985 3.65234H7.00227L8.05045 4.43314V5.53737L7.00227 6.31822H5.51985Z" fill="#F0F0F0"/>
<path d="M6.26109 3.65234H5.51985L4.47168 4.43314V4.973H6.26109V3.65234Z" fill="#FF9811"/>
<path d="M6.26074 6.31826H7.00193L8.0501 5.53742V4.97412H6.26074V6.31826Z" fill="#FF9811"/>
<path d="M5.51985 20.3475L4.47168 19.5667V18.4625L5.51985 17.6816H7.00227L8.05045 18.4625V19.5667L7.00227 20.3475H5.51985Z" fill="#F0F0F0"/>
<path d="M6.26109 17.6816H5.51985L4.47168 18.4625V19.0023H6.26109V17.6816Z" fill="#FF9811"/>
<path d="M6.26074 20.3475H7.00193L8.0501 19.5667V19.0034H6.26074V20.3475Z" fill="#FF9811"/>
<path d="M5.51985 13.3329L4.47168 12.552V11.4478L5.51985 10.667H7.00227L8.05045 11.4478V12.552L7.00227 13.3329H5.51985Z" fill="#496E2D"/>
<path d="M8.0867 15.0511H7.63013V14.5946H6.82787L6.26059 14.0273L5.69335 14.5946H4.89109V15.0511H4.43457V15.9642H4.89109V16.4207H5.6933L6.26063 16.988L6.82787 16.4207H7.63013V15.9642H8.0867V15.0511Z" fill="#496E2D"/>
<path d="M8.0867 8.03605H7.63013V7.57949H6.82787L6.26059 7.01221L5.69335 7.57949H4.89109V8.03605H4.43457V8.94908H4.89109V9.4056H5.6933L6.26063 9.97297L6.82787 9.4056H7.63013V8.94908H8.0867V8.03605Z" fill="#496E2D"/>
<path d="M5.73926 11.4785H6.78274V12.522H5.73926V11.4785Z" fill="#D80027"/>
<path d="M6.26098 9.01414C6.54911 9.01414 6.7827 8.78056 6.7827 8.49242C6.7827 8.20428 6.54911 7.9707 6.26098 7.9707C5.97284 7.9707 5.73926 8.20428 5.73926 8.49242C5.73926 8.78056 5.97284 9.01414 6.26098 9.01414Z" fill="#D80027"/>
<path d="M6.26098 16.0293C6.54911 16.0293 6.7827 15.7957 6.7827 15.5076C6.7827 15.2194 6.54911 14.9858 6.26098 14.9858C5.97284 14.9858 5.73926 15.2194 5.73926 15.5076C5.73926 15.7957 5.97284 16.0293 6.26098 16.0293Z" fill="#D80027"/>
</g>
<defs>
<clipPath id="clip0_86_13144">
<rect width="24" height="24" fill="white"/>
</clipPath>
</defs>
</svg>
